<?xml version="1.0" standalone="no"?>
<!DOCTYPE svg PUBLIC "-//W3C//DTD SVG 20010904//EN"
 "http://www.w3.org/TR/2001/REC-SVG-20010904/DTD/svg10.dtd">
<svg version="1.0" xmlns="http://www.w3.org/2000/svg"
 width="700.000000pt" height="700.000000pt" viewBox="0 0 700.000000 700.000000"
 preserveAspectRatio="xMidYMid meet">
<metadata>
Created by potrace 1.11, written by Peter Selinger 2001-2013
</metadata>
<g transform="translate(0.000000,700.000000) scale(0.100000,-0.100000)"
fill="#000000" stroke="none">
<path d="M3347 6864 c-1 -1 -47 -4 -102 -8 -55 -4 -113 -9 -130 -11 -16 -2
-49 -6 -73 -9 -433 -54 -946 -237 -1330 -477 -108 -67 -331 -230 -404 -296
-153 -136 -339 -335 -448 -478 -263 -345 -457 -744 -559 -1155 -75 -298 -100
-510 -95 -825 1 -126 5 -246 7 -265 3 -19 8 -60 11 -90 10 -91 35 -226 72
-390 20 -85 38 -166 40 -180 3 -14 13 -52 23 -85 11 -33 26 -85 35 -115 17
-55 48 -140 71 -195 7 -16 16 -41 20 -55 13 -41 131 -275 190 -375 169 -287
394 -557 660 -792 162 -142 443 -333 491 -333 30 0 48 24 40 55 -8 31 -9 31
51 1 277 -139 642 -249 929 -282 27 -3 60 -7 74 -10 14 -2 102 -7 195 -10 163
-6 171 -5 192 15 13 12 20 29 18 41 -4 18 2 20 58 21 90 2 239 13 297 24 14 2
57 9 95 15 39 6 97 17 130 25 33 8 94 21 135 30 549 121 1024 380 1415 771 64
64 141 148 173 187 31 40 63 78 70 86 7 7 53 74 103 149 92 138 105 176 72
203 -9 8 -17 14 -17 13 -7 -6 -46 -24 -46 -21 0 2 16 37 36 78 61 124 143 336
159 409 2 8 11 40 19 72 18 68 22 84 46 218 24 138 29 181 36 349 5 121 4 145
-10 166 -9 14 -25 25 -36 25 -32 0 -47 -47 -54 -170 -3 -63 -8 -126 -11 -139
-2 -12 -7 -44 -10 -70 -21 -181 -98 -464 -175 -647 -184 -433 -447 -784 -805
-1078 -87 -72 -272 -205 -300 -217 -6 -2 -57 -30 -115 -61 -207 -112 -492
-210 -704 -244 -21 -3 -46 -7 -55 -9 -9 -1 -36 -6 -61 -10 -25 -3 -58 -9 -75
-12 -52 -9 -366 -10 -445 -2 -41 5 -102 11 -135 14 -33 2 -71 7 -85 10 -14 3
-38 8 -55 11 -185 33 -300 64 -465 126 -593 221 -1082 632 -1407 1183 -189
319 -290 626 -359 1090 -9 64 -12 443 -3 520 12 112 19 167 25 215 7 52 51
251 64 295 6 17 25 80 44 140 86 274 243 567 424 790 474 586 1175 949 1932
1002 205 14 434 5 605 -23 22 -4 51 -8 65 -9 94 -10 357 -81 517 -140 136 -51
366 -164 493 -243 575 -358 1008 -906 1229 -1554 76 -225 116 -408 146 -666 6
-52 19 -78 46 -93 16 -8 25 -7 38 6 17 15 18 14 16 -10 -2 -14 -6 -67 -9 -118
-4 -50 -8 -103 -10 -117 -2 -14 -7 -47 -11 -75 -12 -95 -16 -120 -20 -135 -3
-8 -7 -33 -11 -55 -7 -47 -49 -219 -71 -290 -113 -362 -255 -649 -472 -950
-35 -49 -67 -92 -71 -95 -3 -3 -13 -16 -22 -29 -26 -38 -136 -159 -233 -256
-321 -323 -725 -585 -1150 -748 -237 -91 -424 -139 -743 -192 -13 -2 -53 -7
-90 -10 -88 -9 -136 -31 -140 -67 -5 -40 25 -52 117 -44 119 10 157 16 296 42
691 133 1297 453 1786 943 375 376 621 772 791 1271 36 104 94 317 104 380 3
14 7 39 11 55 4 17 7 35 8 40 1 13 17 116 20 137 2 9 6 45 10 80 3 35 8 81 10
103 6 56 6 384 1 480 -4 72 -4 75 4 25 35 -216 34 -586 0 -830 -17 -117 -21
-145 -26 -162 -3 -10 -7 -30 -10 -45 -22 -126 -97 -383 -156 -533 -91 -230
-185 -410 -324 -621 -149 -226 -281 -380 -538 -628 -51 -49 -66 -70 -66 -92 0
-38 26 -51 68 -34 17 8 69 42 114 76 511 386 887 888 1107 1481 91 244 156
519 185 778 22 195 23 600 2 718 -2 9 -7 44 -10 77 -6 47 -49 293 -60 340 -71
290 -205 636 -337 867 -23 40 -50 88 -61 107 -59 104 -201 300 -311 431 -121
144 -340 358 -462 451 -16 13 -32 26 -35 29 -12 15 -208 151 -298 207 -216
135 -463 250 -715 334 -143 48 -378 109 -482 125 -27 4 -52 8 -55 9 -3 1 -34
5 -70 9 -36 5 -72 10 -80 11 -60 11 -512 28 -523 19z m423 -114 c36 -5 88 -11
115 -14 255 -27 588 -115 860 -228 107 -45 318 -147 375 -183 169 -106 216
-137 292 -192 92 -66 96 -69 217 -173 361 -308 662 -720 863 -1180 74 -167
178 -503 204 -660 3 -14 9 -50 14 -80 5 -30 12 -80 16 -110 3 -30 8 -57 9 -60
7 -12 19 -251 19 -370 0 -122 -9 -312 -19 -378 -2 -18 -9 -67 -15 -110 -6 -42
-20 -120 -31 -172 -11 -52 -22 -105 -25 -118 -9 -45 -73 -249 -107 -342 -48
-131 -130 -310 -198 -430 -41 -74 -170 -280 -175 -280 -2 0 32 71 76 158 81
161 170 378 210 512 12 41 28 95 35 120 13 44 41 161 50 210 21 110 36 191 40
223 3 20 7 52 9 70 19 138 25 412 13 597 -22 345 -106 709 -233 1018 -105 254
-311 606 -463 791 -20 24 -58 72 -85 105 -52 65 -248 263 -331 334 -126 109
-386 294 -545 389 -332 199 -749 348 -1115 398 -22 3 -49 7 -60 10 -56 11
-231 20 -405 20 -308 0 -476 -20 -762 -91 -625 -154 -1208 -513 -1619 -994
-35 -41 -67 -77 -70 -80 -4 -3 -38 -49 -78 -104 -85 -117 -94 -120 -14 -3 119
173 248 330 384 467 84 83 123 120 229 211 192 164 506 355 775 469 185 79
429 156 583 185 13 2 31 6 40 9 50 15 265 46 367 53 50 3 92 7 93 9 8 6 401 1
462 -6z m-95 -323 c17 -3 59 -9 95 -12 36 -4 74 -9 85 -11 10 -2 37 -6 60 -9
77 -12 326 -76 424 -110 206 -72 414 -171 586 -278 123 -77 121 -85 -5 -20
-63 32 -149 74 -190 92 -148 65 -475 165 -610 186 -19 3 -57 10 -85 15 -179
33 -522 46 -735 28 -358 -31 -725 -132 -1034 -285 -544 -269 -951 -652 -1282
-1208 -199 -333 -324 -710 -371 -1115 -10 -83 -10 -463 -1 -555 67 -647 342
-1241 785 -1698 101 -104 239 -226 340 -299 46 -33 83 -62 83 -64 0 -10 -230
152 -295 207 -94 80 -133 117 -225 209 -340 341 -582 765 -714 1250 -27 98
-53 218 -62 280 -2 19 -6 44 -9 55 -4 20 -10 70 -24 203 -8 79 -6 419 3 491
16 125 28 210 36 246 5 22 12 56 15 75 12 70 47 198 87 320 325 994 1157 1739
2183 1956 75 16 222 38 322 48 113 11 475 13 538 3z m185 -220 c14 -3 48 -8
75 -11 146 -16 413 -81 591 -145 418 -150 753 -363 1086 -690 191 -188 190
-187 221 -157 12 13 21 5 63 -61 172 -265 305 -566 384 -868 35 -133 68 -296
76 -373 3 -31 7 -64 9 -72 5 -17 16 -174 19 -273 3 -73 -5 -84 -11 -14 -6 70
-42 266 -69 372 -67 264 -174 532 -309 774 -34 61 -182 291 -194 301 -3 3 -19
23 -36 45 -136 182 -352 400 -545 551 -397 309 -873 512 -1371 584 -141 20
-211 25 -411 25 -113 0 -204 2 -201 5 15 16 554 21 623 7z m-643 -13 c-3 -3
-12 -4 -19 -1 -8 3 -5 6 6 6 11 1 17 -2 13 -5z m-2466 -1257 c-10 -9 -11 -8
-5 6 3 10 9 15 12 12 3 -3 0 -11 -7 -18z m-45 -84 c-133 -266 -249 -636 -282
-898 -3 -22 -7 -49 -9 -60 -20 -96 -27 -518 -12 -665 31 -296 99 -577 206
-842 105 -262 281 -560 451 -763 18 -22 15 -21 -10 5 -40 40 -87 98 -141 173
-21 29 -46 63 -57 77 -64 84 -218 359 -280 500 -56 129 -123 349 -161 531 -46
221 -56 323 -56 564 1 214 11 343 41 500 2 11 9 47 15 80 41 229 119 456 254
735 51 105 64 130 70 130 3 0 -10 -30 -29 -67z"/>
<path d="M3397 5724 c-1 -1 -56 -4 -122 -8 -180 -9 -282 -26 -469 -78 -288
-79 -551 -211 -790 -397 -78 -61 -280 -260 -345 -340 -78 -95 -185 -258 -242
-368 -112 -216 -174 -408 -224 -688 -30 -171 -25 -481 11 -675 58 -316 178
-598 396 -929 92 -140 261 -328 408 -456 115 -99 299 -217 461 -294 203 -97
259 -110 259 -62 0 26 -24 41 -123 80 -79 31 -197 88 -197 95 0 2 44 -14 98
-36 145 -58 299 -100 487 -133 17 -3 72 -8 122 -11 83 -6 93 -5 99 11 15 38
-12 54 -121 70 -22 3 -91 19 -153 36 -421 111 -794 345 -1063 669 -95 114 -83
97 -147 195 -128 192 -264 534 -288 724 -2 19 -7 48 -10 65 -25 135 -25 425 0
581 96 609 462 1124 1006 1417 190 102 411 175 641 212 186 29 446 24 611 -13
24 -6 59 -13 78 -16 54 -9 216 -63 310 -103 453 -194 838 -590 1036 -1068 39
-94 91 -250 99 -295 3 -16 12 -57 19 -91 8 -35 17 -85 21 -113 4 -27 9 -63 11
-80 3 -16 6 -102 8 -190 9 -545 -169 -1054 -523 -1500 -85 -107 -152 -177
-320 -335 -9 -8 -37 -31 -61 -50 -25 -19 -54 -43 -64 -52 -70 -64 -260 -181
-451 -279 -130 -66 -150 -80 -150 -100 0 -47 49 -37 205 42 252 127 482 294
685 495 411 409 655 890 729 1439 23 175 14 513 -18 679 -21 112 -31 152 -57
241 -17 55 -34 109 -38 120 -5 11 -19 45 -31 75 -106 264 -279 520 -490 728
l-65 64 65 -52 c72 -57 210 -195 281 -280 214 -258 381 -604 445 -923 2 -10 5
-26 8 -35 3 -9 8 -35 11 -57 3 -23 8 -52 10 -65 22 -111 26 -452 6 -595 -18
-131 -19 -138 -52 -275 -65 -266 -187 -529 -347 -752 -340 -474 -825 -799
-1376 -923 -136 -30 -196 -39 -331 -50 -90 -8 -115 -17 -115 -44 0 -28 42 -38
155 -36 235 5 454 38 656 99 1010 306 1712 1252 1713 2306 0 102 -10 271 -18
318 -2 9 -7 40 -10 67 -12 83 -16 108 -27 150 -6 22 -12 47 -14 55 -8 39 -38
146 -50 179 -7 20 -28 74 -45 121 -199 530 -629 1003 -1149 1264 -181 92 -413
171 -583 201 -17 3 -34 8 -38 10 -3 2 -33 7 -65 10 -33 4 -63 9 -66 11 -7 4
-298 21 -302 18z m248 -88 c96 -13 130 -18 175 -26 219 -44 384 -100 586 -200
564 -279 992 -781 1178 -1381 33 -106 62 -221 71 -279 36 -236 44 -510 18
-710 -97 -779 -580 -1462 -1282 -1815 -111 -55 -145 -69 -136 -55 3 6 11 10
17 10 14 0 165 91 263 158 185 128 367 300 516 487 57 71 169 232 169 242 0 2
9 17 19 32 72 100 209 434 246 596 54 238 69 366 69 575 0 377 -75 693 -243
1030 -55 108 -103 188 -181 296 -355 495 -903 821 -1510 899 -126 16 -429 14
-550 -4 -617 -91 -1156 -433 -1488 -943 -115 -177 -267 -542 -274 -655 0 -5
-4 -18 -9 -29 -4 -12 -11 -42 -14 -65 -4 -24 -9 -46 -12 -49 -3 -3 -2 18 2 45
4 28 8 64 11 80 23 177 97 400 200 607 236 472 698 871 1214 1047 82 28 271
77 330 86 25 3 52 8 60 10 8 2 44 7 80 10 36 4 66 8 67 9 6 5 361 -2 408 -8z
m-2372 -1916 c-3 -12 -8 -19 -11 -16 -5 6 5 36 12 36 2 0 2 -9 -1 -20z m64
-152 c-2 -13 -4 -5 -4 17 -1 22 1 32 4 23 2 -10 2 -28 0 -40z m0 -60 c-3 -7
-5 -2 -5 12 0 14 2 19 5 13 2 -7 2 -19 0 -25z m3 -95 c1 -393 184 -879 454
-1208 61 -75 194 -214 232 -244 50 -39 96 -82 92 -86 -2 -2 -15 6 -28 18 -14
12 -48 40 -77 61 -65 49 -264 252 -324 331 -62 81 -150 219 -178 280 -68 147
-143 389 -157 508 -4 29 -8 55 -10 58 -14 24 -25 359 -12 359 4 0 8 -35 8 -77z"/>
</g>
</svg>
