<svg width="96" height="72" viewBox="0 0 96 72" fill="none" xmlns="http://www.w3.org/2000/svg">
<path d="M19.5076 49.1049L27.3216 54.5595L50.7481 57.3905L55.8354 62.9444H68.8636L81.7678 53.441L89.3843 44.2504C89.3843 44.2504 90.9496 43.9377 90.4533 33.6938C89.8329 23.3265 79.2862 14.0699 79.2862 14.0699L67.871 1.85131L46.9017 0L30.2752 1.85131L11.1671 14.0699L0 30.8551V42.3332L8.31327 50.2321L20.9693 45.6655L19.5076 49.1049Z" transform="translate(5.05078 4.34961)" fill="#C94281"/>
<path d="M31.516 1.93976C26.6769 5.27211 21.2174 6.62973 15.8821 6.01263C15.5098 7.12342 14.7654 8.60446 13.2764 10.3323C10.4226 13.7881 5.95577 16.8736 0 19.4655C3.22604 23.2915 8.43734 25.1428 13.6486 23.6617C15.3857 23.1681 16.9988 22.3041 18.2396 21.1933C18.8599 21.0699 19.6044 20.9465 20.2248 20.6997C29.4066 17.9844 35.3123 9.13311 34.1956 0C33.5752 0.740522 32.5086 1.32266 31.516 1.93976Z" transform="translate(60.7607 47.8286)" fill="#E566A1"/>
<path d="M95.6278 31.1319C95.5037 30.0211 95.2555 28.7869 94.8833 27.6761C94.8833 27.5527 94.7592 27.4292 94.7592 27.3058C92.898 21.0114 88.6794 15.9511 83.2199 12.9891C77.6364 3.97937 66.7175 -0.71061 55.7985 1.88122C55.4263 2.00464 55.0541 2.12806 54.5577 2.25148C54.5577 2.25148 54.5577 2.25148 54.4337 2.25148C49.5946 -0.0935076 43.887 -0.71061 38.3035 0.893856C34.0848 2.12806 30.6106 4.47305 27.8808 7.43514C25.6474 7.31172 23.2899 7.55856 21.0565 8.17566C14.1081 10.1504 9.14498 15.9511 7.78012 22.6158C2.0725 27.4292 -1.27762 35.4516 0.459482 43.1036C2.81697 53.471 12.7433 61.2464 27.2605 55.1988C27.2605 55.3223 27.2605 55.3223 27.3845 55.4457C27.8808 49.5215 31.6032 46.0657 33.7125 44.4613C29.9902 39.2776 21.1806 29.2806 14.7285 32.2426C10.5098 34.2174 9.88945 38.0434 11.1302 40.8821C12.4951 43.8442 15.8452 45.9423 20.6843 43.9676C21.5528 43.5973 22.6695 43.9676 23.0418 44.9549C23.414 45.8189 23.0418 46.9297 22.0492 47.2999C15.1008 50.1386 9.76538 46.6828 7.9042 42.2397C5.91894 37.7966 7.15972 31.749 13.2396 28.9103C14.4804 28.2932 15.9693 27.9229 17.8305 28.0463C17.8305 24.3437 19.0713 21.2582 21.4288 18.9132C25.1511 15.2106 30.6106 14.4701 33.2162 14.3467C35.0774 8.91618 40.2887 5.83067 47.113 6.32435C50.7113 6.57119 53.8133 8.29908 56.0467 9.90355C57.1634 10.7675 58.156 11.6314 58.7764 12.2485C62.7469 9.78012 68.3305 8.29908 73.0455 10.027C76.2715 11.1377 80.242 13.9764 81.6069 21.5051C83.344 22.369 86.8182 24.4672 87.8108 28.2932C88.5553 31.0084 87.9349 34.0939 86.0737 36.5624C84.4607 38.7839 80.9865 41.4992 74.1622 41.746C74.0381 41.746 74.0381 41.746 73.914 41.746C73.7899 41.746 61.3821 40.5118 56.9152 49.2747C56.6671 49.7683 56.4189 50.262 56.1708 50.6323C54.5577 53.2241 52.8206 54.7052 50.8354 55.3223C50.4632 55.4457 50.0909 55.4457 49.7187 55.5691C45.8722 55.9394 43.2666 52.7304 43.1425 52.607C42.5221 51.8665 42.6462 50.7557 43.3907 50.1386C44.1351 49.5215 45.2519 49.6449 45.8722 50.3854C45.8722 50.3854 47.4853 52.2367 49.3464 52.1133C50.8354 51.9899 52.3243 50.3854 53.8133 47.6702C54.4337 46.436 55.3022 45.3252 56.1708 44.2144C58.6523 41.4992 62.1265 39.6479 66.3452 38.7839C70.1917 37.92 73.5418 38.1668 74.2862 38.2902C79.6216 38.0434 82.1032 36.1921 83.344 34.5876C84.4607 32.9832 84.957 31.1319 84.4607 29.404C83.5921 26.195 79.4975 24.714 79.4975 24.5906C78.8771 24.3437 78.3808 23.85 78.3808 23.1095C77.6364 17.9259 75.527 14.7169 72.0528 13.4827C67.7101 12.0017 62.0025 14.0998 58.9005 16.9385C55.3022 20.3943 56.4189 24.8374 57.0393 26.4419C63.4914 24.8374 68.3305 28.0463 68.4546 28.2932C69.3231 28.9103 69.4472 30.0211 68.9509 30.7616C68.3305 31.6255 67.2138 31.749 66.4693 31.2553C66.3452 31.1319 62.4988 28.6635 57.4116 30.1445C56.9152 30.2679 56.543 30.3913 56.1708 30.5148C52.3243 31.9958 51.2076 34.3408 51.2076 34.5876C51.0835 35.0813 50.7113 35.4516 50.215 35.6984C49.7187 35.9453 49.2224 35.8218 48.7261 35.6984C48.4779 35.575 45.0037 34.2174 41.0332 37.3029C36.9386 40.3884 37.9312 44.5847 38.0553 44.7081C38.3035 45.572 37.9312 46.436 37.1867 46.8062C36.9386 46.9297 31.6032 49.7683 31.231 56.3096C31.1069 59.1483 32.4718 62.2338 35.3256 64.0851C38.5516 65.6896 42.398 66.0598 46.1204 65.0725C47.4853 64.7022 48.7261 64.0851 49.8428 63.3446C51.828 64.3319 54.0614 64.8256 56.2948 64.5788C59.0246 64.5788 62.871 62.7275 63.8636 62.2338C67.8342 60.0122 70.0676 57.7907 71.4324 56.1862C73.6658 53.7178 73.914 51.8665 73.914 51.6196C73.914 51.126 74.1622 50.6323 74.5344 50.262C74.9066 49.8918 75.527 49.8918 76.0233 49.8918C80.9865 51.0025 85.9496 49.8918 90.4165 46.8062C92.5258 45.3252 94.1388 43.4739 94.8833 41.0055C95.2555 39.8947 95.2174 40.1143 95.4783 39.0857C95.8505 38.0571 96 35.4857 96 34.3408C96 33.4286 95.7981 32.6571 95.6278 31.1319Z" fill="#E566A1"/>
<path d="M25.4478 0.0380253C19.8642 -0.332236 15.8937 2.01275 14.9011 6.57931C14.6529 7.44325 13.9085 8.06035 13.0399 7.93693C12.9158 7.93693 6.21559 7.81351 2.49324 11.5161C0.756135 13.244 -0.112415 15.589 0.0116638 18.5511C0.0116638 18.6745 0.0116638 18.7979 0.0116638 18.9213C2.49324 19.7853 5.34704 21.5132 8.44901 24.5987C10.3102 26.3266 11.9232 28.3013 13.164 29.7823C13.7844 28.0545 14.9011 26.0797 17.1345 24.3518C21.105 21.2663 24.8274 21.3898 26.9367 21.8834C27.8053 20.6492 29.2942 19.0448 32.0239 17.6871C30.7832 14.6016 30.1628 8.92429 34.5055 4.60458C32.8925 3.12353 29.4183 0.284866 25.4478 0.0380253Z" transform="translate(21.293 9.98877)" fill="#E566A1"/>
</svg>
