<svg width="212" height="163" viewBox="0 0 212 163" fill="none" xmlns="http://www.w3.org/2000/svg">
<path d="M174.234 58.0443C195.091 58.0443 212 74.9344 212 95.7748C212 116.615 195.091 133.51 174.234 133.51H48.5928C21.7545 133.51 0 111.768 0 84.952C0 58.1354 21.7545 36.3935 48.5928 36.3935C53.5702 36.3935 58.3702 37.1431 62.8863 38.5307C62.7292 37.1886 62.638 35.8263 62.638 34.4437C62.638 15.4214 78.0719 -1.54556e-07 97.1046 -1.54556e-07C115.504 -1.54556e-07 130.532 14.3984 131.52 32.5344C135.9 28.5891 141.688 26.1885 148.044 26.1885C161.679 26.1885 172.728 37.2291 172.728 50.8527C172.728 53.39 172.343 55.8361 171.628 58.1405C172.49 58.0848 173.357 58.0443 174.234 58.0443Z" fill="#C5EDF0"/>
<path d="M46.4182 -4.45549e-06L92.8467 60.7141H69.1445V111.771H23.7022V60.7141H7.60404e-06L46.4182 -4.45549e-06Z" transform="translate(58.8027 51.2285)" fill="#F89C55"/>
</svg>
