<svg width="81" height="81" viewBox="0 0 81 81" fill="none" xmlns="http://www.w3.org/2000/svg">
<path opacity="0.5" d="M40.5 81C62.8675 81 81 62.8675 81 40.5C81 18.1325 62.8675 0 40.5 0C18.1325 0 0 18.1325 0 40.5C0 62.8675 18.1325 81 40.5 81Z" fill="#8D919E"/>
<path d="M33.2861 66.5721C51.6694 66.5721 66.5721 51.6694 66.5721 33.2861C66.5721 14.9027 51.6694 0 33.2861 0C14.9027 0 0 14.9027 0 33.2861C0 51.6694 14.9027 66.5721 33.2861 66.5721Z" transform="translate(7.21387 7.21387)" fill="#6279A1"/>
<path d="M8.03727 16.0745C12.4761 16.0745 16.0745 12.4761 16.0745 8.03727C16.0745 3.59841 12.4761 0 8.03727 0C3.59841 0 0 3.59841 0 8.03727C0 12.4761 3.59841 16.0745 8.03727 16.0745Z" transform="translate(38.1475 20.4263)" fill="#F683B9"/>
<path d="M5.33204 10.6641C8.27685 10.6641 10.6641 8.27685 10.6641 5.33204C10.6641 2.38724 8.27685 0 5.33204 0C2.38724 0 0 2.38724 0 5.33204C0 8.27685 2.38724 10.6641 5.33204 10.6641Z" transform="translate(25.7979 45.9102)" fill="#FCCB6F"/>
<path d="M3.95983 7.91965C6.14678 7.91965 7.91965 6.14678 7.91965 3.95982C7.91965 1.77287 6.14678 0 3.95983 0C1.77287 0 0 1.77287 0 3.95982C0 6.14678 1.77287 7.91965 3.95983 7.91965Z" transform="translate(19.3291 29.248)" fill="#F89C55"/>
<path d="M6.3514 12.7028C9.85918 12.7028 12.7028 9.85919 12.7028 6.35141C12.7028 2.84362 9.85918 0 6.3514 0C2.84362 0 0 2.84362 0 6.35141C0 9.85919 2.84362 12.7028 6.3514 12.7028Z" transform="translate(49.2822 42.9697)" fill="#5A478F"/>
<path d="M1.52904 3.05808C2.37351 3.05808 3.05808 2.37351 3.05808 1.52904C3.05808 0.684576 2.37351 0 1.52904 0C0.684575 0 2.39296e-06 0.684576 2.39296e-06 1.52904C2.39296e-06 2.37351 0.684575 3.05808 1.52904 3.05808Z" transform="translate(58.8486 27.7974)" fill="#B1C6FA"/>
<path d="M1.52904 3.05808C2.37351 3.05808 3.05808 2.37351 3.05808 1.52904C3.05808 0.684576 2.37351 -2.39296e-06 1.52904 -2.39296e-06C0.684575 -2.39296e-06 0 0.684576 0 1.52904C0 2.37351 0.684575 3.05808 1.52904 3.05808Z" transform="translate(42.7734 59.3584)" fill="#F47E6C"/>
<path d="M1.52904 3.05808C2.37351 3.05808 3.05808 2.37351 3.05808 1.52904C3.05808 0.684575 2.37351 0 1.52904 0C0.684576 0 0 0.684575 0 1.52904C0 2.37351 0.684576 3.05808 1.52904 3.05808Z" transform="translate(30.7373 36.3438)" fill="#C5EDF0"/>
<path d="M34.8543 69.7086C15.6433 69.7086 -1.4956e-07 54.0653 -1.4956e-07 34.8543C-1.4956e-07 15.6433 15.6433 -1.4956e-07 34.8543 -1.4956e-07C54.0653 -1.4956e-07 69.7086 15.6433 69.7086 34.8543C69.7086 54.0653 54.0653 69.7086 34.8543 69.7086ZM34.8543 3.1365C17.3291 3.1365 3.09729 17.3683 3.09729 34.8935C3.09729 52.4187 17.3291 66.6505 34.8543 66.6505C52.3795 66.6505 66.6113 52.4187 66.6113 34.8935C66.6113 17.3683 52.3795 3.1365 34.8543 3.1365Z" transform="translate(5.64551 5.64551)" fill="#D3D5DB"/>
</svg>
