<svg width="82" height="78" viewBox="0 0 82 78" fill="none" xmlns="http://www.w3.org/2000/svg">
<path fill-rule="evenodd" clip-rule="evenodd" d="M0.509726 2.99489C3.20649 5.72463 5.90326 8.45437 8.60003 11.1841C10.1783 12.7817 12.628 10.3032 11.0494 8.70505C8.35237 5.97531 5.65561 3.24557 2.95884 0.515826C1.38084 -1.08176 -1.06914 1.39672 0.509726 2.99489Z" transform="translate(46.0508 41.6123)" fill="#164B6E"/>
<path fill-rule="evenodd" clip-rule="evenodd" d="M52.8925 26.7698C52.8925 41.5541 41.0522 53.5395 26.4464 53.5395C11.8403 53.5395 0 41.5541 0 26.7698C0 11.9851 11.8403 0 26.4464 0C41.0522 0 52.8925 11.9851 52.8925 26.7698Z" fill="#2B688F"/>
<path fill-rule="evenodd" clip-rule="evenodd" d="M30.6334 21.7111L21.4518 31.008L0 9.29392L4.50827 4.73315L9.18454 0L30.6334 21.7111Z" transform="translate(51.3672 46.9917)" fill="#FCCB6F"/>
<path fill-rule="evenodd" clip-rule="evenodd" d="M45.79 23.0544C45.79 29.2123 43.4074 35.002 39.084 39.3588H39.081C37.3809 41.0709 35.434 42.4976 33.2982 43.596C30.0595 45.2651 26.559 46.1089 22.8938 46.1089C14.2498 46.1089 6.43174 41.2918 2.49531 33.5323C1.66689 31.9001 1.0423 30.2064 0.624589 28.4545C0.210228 26.7025 0 24.8984 0 23.0544C0 20.9251 0.289444 18.8111 0.865589 16.7646C1.74885 13.6228 3.25426 10.7602 5.34404 8.25039C9.71007 3.00683 16.1083 0 22.8938 0C26.5557 0 30.0564 0.846823 33.2982 2.51592C40.2052 6.07196 44.8242 12.8128 45.6532 20.5447V20.5508C45.7446 21.3853 45.79 22.2291 45.79 23.0544Z" transform="translate(3.69238 3.71875)" fill="white"/>
</svg>
