<svg width="100" height="69" viewBox="0 0 100 69" fill="none" xmlns="http://www.w3.org/2000/svg">
<path d="M11.52 29.0505H5.88C4.32 29.0505 2.84 28.4495 1.72 27.3275C0.599999 26.2056 6.10352e-07 24.723 6.10352e-07 23.1603C6.10352e-07 19.9146 2.64 17.3101 5.84 17.3101H50.64C52.48 17.3101 54.2 16.5888 55.48 15.3066C56.76 14.0244 57.48 12.3014 57.48 10.4582C57.48 6.69164 54.4 3.60627 50.64 3.60627H39.72C38.72 3.60627 37.92 2.80488 37.92 1.80313C37.92 0.801393 38.72 -1.22283e-06 39.72 -1.22283e-06H50.64C56.4 -1.22283e-06 61.04 4.68815 61.04 10.4181C61.04 13.223 59.96 15.8275 58 17.7909C56.04 19.7544 53.4 20.8362 50.64 20.8362H5.88C4.64 20.8362 3.6 21.878 3.6 23.1202C3.6 23.7213 3.84 24.3223 4.28 24.723C4.72 25.1638 5.28 25.4042 5.88 25.4042H11.52C12.52 25.4042 13.32 26.2056 13.32 27.2073C13.28 28.2491 12.48 29.0505 11.52 29.0505Z" transform="translate(38.96 39.9497)" fill="#D3D5DB"/>
<path d="M15.1309 13.824C13.6109 14.8258 12.2909 16.2282 11.3309 18.0314L10.6109 19.4338L10.0109 20.5557C9.45086 20.3955 8.89086 20.1951 8.37086 19.9948C-0.629144 16.4686 -1.14915 9.41638 1.17085 4.68815C2.49085 1.96341 4.81086 0 6.97086 0C13.0909 0 15.1309 13.824 15.1309 13.824Z" transform="translate(1.90918)" fill="#D3D5DB"/>
<path opacity="0.5" d="M10.6109 14.9059L10.0109 16.0279C9.45086 15.8676 8.89086 15.6672 8.37086 15.4669C-0.629144 11.9408 -1.14915 4.8885 1.17085 0.160279C1.53085 0.0801393 1.89086 7.64269e-08 2.21086 7.64269e-08C8.33086 7.64269e-08 10.3709 13.824 10.3709 13.824C10.4509 14.1847 10.5309 14.5453 10.6109 14.9059Z" transform="translate(1.90918 4.52783)" fill="#8D919E"/>
<path d="M85.16 32.6568C85.16 38.3868 80.56 43.5557 74.28 43.5557H5.16C5.16 41.8328 4.72 40.23 3.92 38.8676C3 37.2648 1.64 35.9425 0 35.061L7.52 20.5557L8.84 17.9913C9.76 16.1882 11.08 14.7857 12.64 13.784C13.84 12.9826 15.2 12.4617 16.6 12.1812C18.04 11.9007 19.52 11.9007 21 12.1812C21.72 8.57491 24 0 28.84 0C30.96 0 33.24 1.88328 34.56 4.52787C35.28 5.89024 35.72 7.49303 35.8 9.13589C40.28 7.29268 45 6.41115 49.72 6.37108C63.76 6.29094 77.52 14.0244 84.12 28.0488C84.84 29.5314 85.16 31.1341 85.16 32.6568Z" transform="translate(4.40039)" fill="#D3D5DB"/>
<g opacity="0.5">
<path opacity="0.5" d="M3.56 13.4634H2.44141e-06V9.53659C2.44141e-06 4.24739 4.28 -6.11415e-07 9.52 -6.11415e-07H19.12C19.12 1.96341 17.52 3.5662 15.56 3.5662H9.52C6.24 3.5662 3.56 6.25087 3.56 9.53659V13.4634Z" transform="translate(61.04 30.0923)" fill="#8D919E"/>
<path opacity="0.5" d="M3.56 10.4983H6.10352e-07V7.57317C6.10352e-07 3.36585 3.4 0 7.56 0H14.72C14.72 1.96341 13.12 3.5662 11.16 3.5662H7.56C5.36 3.5662 3.56 5.36934 3.56 7.57317V10.4983Z" transform="translate(31.3604 33.0576)" fill="#8D919E"/>
</g>
<g opacity="0.5">
<path opacity="0.5" d="M0.0799988 0.240418C0.0399988 0.160279 0 0.0801395 0 1.52854e-07C0.04 0.0801395 0.0799988 0.160279 0.0799988 0.240418Z" transform="translate(39.3994 5.44922)" fill="#8D919E"/>
<path opacity="0.5" d="M21.52 7.64269e-08C16.84 0.0400698 12.12 0.921603 7.6 2.76481C7.6 2.60453 7.56 2.44425 7.56 2.28397C7.92 6.25087 6.08 10.6185 0 13.2631C2.92 13.2631 5.68 14.5052 7.56 16.7091L8.84 18.1916C8.88 18.2317 8.64 3.80662 21.52 7.64269e-08Z" transform="translate(32.5996 6.33105)" fill="#8D919E"/>
<path opacity="0.5" d="M0.0799994 0.200348C0.0399994 0.120209 0.0400006 0.0801393 6.10352e-07 -7.64269e-08C0.0400006 0.0801393 0.0399994 0.120209 0.0799994 0.200348Z" transform="translate(39.1592 4.88818)" fill="#8D919E"/>
<path opacity="0.5" d="M0.04 0.0801394C0.04 0.0400697 6.10352e-07 0.0400698 6.10352e-07 7.64269e-08C0.0400006 0.0400698 0.04 0.0400697 0.04 0.0801394Z" transform="translate(38.959 4.52783)" fill="#8D919E"/>
<path opacity="0.5" d="M0.0400006 0.320557C0.0400006 0.200348 1.2207e-06 0.120209 1.2207e-06 1.52854e-07C0.0400012 0.0801395 0.0400006 0.200348 0.0400006 0.320557Z" transform="translate(40.1191 8.25439)" fill="#8D919E"/>
<path opacity="0.5" d="M0.08 0.280488C0.08 0.200349 0.0400012 0.0801392 1.2207e-06 -1.52854e-07C0.0400012 0.0801392 0.04 0.160279 0.08 0.280488Z" transform="translate(39.9199 7.17236)" fill="#8D919E"/>
<path opacity="0.5" d="M0.0800012 0.240418C0.0400012 0.160279 0.0399994 0.0801393 -6.10352e-07 -7.64269e-08C0.0399994 0.0801393 0.0400012 0.160279 0.0800012 0.240418Z" transform="translate(39.6396 6.09033)" fill="#8D919E"/>
<path opacity="0.5" d="M0.0399988 0.280488C0.0399988 0.200348 -6.10352e-07 0.0801391 -6.10352e-07 -3.05707e-07C0.0399994 0.0801391 0.0399988 0.160279 0.0399988 0.280488Z" transform="translate(40.0391 7.7334)" fill="#8D919E"/>
<path opacity="0.5" d="M0.0799988 0.280488C0.0399988 0.200349 0.04 0.120209 0 0C0.04 0.0801394 0.0399988 0.200349 0.0799988 0.280488Z" transform="translate(39.7998 6.61133)" fill="#8D919E"/>
</g>
<path d="M9.56 8.49477H0L4.4 0C7.48 1.60279 9.56 4.80836 9.56 8.49477Z" transform="translate(0 35.061)" fill="#F683B9"/>
<path d="M5.04 2.52439C5.04 3.92683 3.92 5.04878 2.52 5.04878C1.12 5.04878 0 3.92683 0 2.52439C0 1.12195 1.12 -1.22283e-06 2.52 -1.22283e-06C3.92 0.0400685 5.04 1.16202 5.04 2.52439Z" transform="translate(11.7998 26.9268)" fill="#6279A1"/>
<path d="M5.04 2.52439C5.04 3.92683 3.92 5.04878 2.52 5.04878C1.12 5.04878 6.10352e-07 3.92683 6.10352e-07 2.52439C6.10352e-07 1.12195 1.12 -1.22283e-06 2.52 -1.22283e-06C3.92 0.0400685 5.04 1.16202 5.04 2.52439Z" transform="translate(18.96 26.9268)" fill="#6279A1"/>
</svg>
