<svg width="90" height="94" viewBox="0 0 90 94" fill="none" xmlns="http://www.w3.org/2000/svg">
<path fill-rule="evenodd" clip-rule="evenodd" d="M28.21 38.4421L30.4412 37.8555L41.5977 65.2077L39.3668 65.7941L28.21 38.4421ZM64.869 26.1255L65.5065 28.365L30.5486 36.2027L29.9111 33.9635L64.869 26.1255ZM27.4141 0.0530968L29.6985 0L30.2827 28.5249L27.9986 28.5783L27.4141 0.0530968ZM27.892 34.4961L27.2013 36.7355L0 28.4179L0.690636 26.1787L27.892 34.4961Z" transform="translate(15.5674 12.5835)" fill="#9DA3B3"/>
<path fill-rule="evenodd" clip-rule="evenodd" d="M15.3547 0C23.8349 0 30.7097 6.89915 30.7097 15.41C30.7097 23.9207 23.8349 30.8198 15.3547 30.8198C6.8745 30.8198 0 23.9207 0 15.41C0 6.89915 6.8745 0 15.3547 0Z" transform="translate(29.0605 32.895)" fill="#5A478F"/>
<path fill-rule="evenodd" clip-rule="evenodd" d="M11.1577 0C17.3202 0 22.3157 5.01336 22.3157 11.198C22.3157 17.3823 17.3202 22.3957 11.1577 22.3957C4.99545 22.3957 0 17.3823 0 11.198C0 5.01336 4.99545 0 11.1577 0Z" transform="translate(46.8047 71.6045)" fill="#F47E6C"/>
<path fill-rule="evenodd" clip-rule="evenodd" d="M8.34111 0C12.948 0 16.6825 3.74789 16.6825 8.3713C16.6825 12.9947 12.948 16.7426 8.34111 16.7426C3.7345 16.7426 0 12.9947 0 8.3713C0 3.74789 3.7345 0 8.34111 0Z" transform="translate(73.3174 31.3506)" fill="#73C8CC"/>
<mask id="mask0" mask-type="alpha" maskUnits="userSpaceOnUse" x="0" y="27" width="22" height="23">
<path fill-rule="evenodd" clip-rule="evenodd" d="M0 22.0737V0L21.9947 0V22.0737H0H0Z" transform="translate(0 27.4585)" fill="white"/>
</mask>
<g mask="url(#mask0)">
<path fill-rule="evenodd" clip-rule="evenodd" d="M10.9976 0C17.0713 0 21.9948 4.94142 21.9948 11.0367C21.9948 17.1323 17.0713 22.0737 10.9976 22.0737C4.92377 22.0737 0 17.1323 0 11.0367C0 4.94142 4.92377 0 10.9976 0Z" transform="translate(0 27.4585)" fill="#42C7BB"/>
</g>
<path fill-rule="evenodd" clip-rule="evenodd" d="M6.42849 0C9.97867 0 12.857 2.88835 12.857 6.45154C12.857 10.0144 9.97867 12.9028 6.42849 12.9028C2.87831 12.9028 0 10.0144 0 6.45154C0 2.88835 2.87831 0 6.42849 0Z" transform="translate(37.4561)" fill="#FCCB6F"/>
</svg>
