<svg width="44" height="44" viewBox="0 0 44 44" fill="none" xmlns="http://www.w3.org/2000/svg">
<path d="M18.5962 15.2279L29.7583 4.06576C30.6884 3.13579 30.6884 1.62768 29.7583 0.697576C28.8283 -0.232386 27.3202 -0.232386 26.3901 0.697576L15.2279 11.8598L4.06579 0.697576C3.13582 -0.232525 1.62797 -0.232525 0.697583 0.697576C-0.232527 1.62754 -0.232527 3.13565 0.697583 4.06576L11.8597 15.2279L0.697583 26.3901C-0.232527 27.3201 -0.232527 28.8282 0.697583 29.7583C1.62769 30.6884 3.13568 30.6884 4.06579 29.7583L15.2279 18.5961L26.3901 29.7583C27.3199 30.6883 28.8279 30.6886 29.7583 29.7583C30.6884 28.8284 30.6884 27.3202 29.7583 26.3901L18.5962 15.2279Z" transform="translate(21.5355) rotate(45)" fill="#B1C6FA"/>
<rect width="41" height="5" rx="2.5" transform="translate(1 19)" fill="#B1C6FA"/>
</svg>
