<svg width="14" height="16" viewBox="0 0 14 16" fill="none" xmlns="http://www.w3.org/2000/svg">
<path d="M5.33333 14.4762C5.33333 15.3219 6.01905 16 6.85714 16C7.26128 16 7.64887 15.8395 7.93464 15.5537C8.22041 15.2679 8.38095 14.8803 8.38095 14.4762H5.33333ZM12.099 11.2914V6.85714C12.099 4.38095 10.3848 2.30857 8.06857 1.76V1.21143C8.06857 0.890138 7.94094 0.582006 7.71375 0.354819C7.48657 0.127632 7.17843 0 6.85714 0C6.53585 0 6.22772 0.127632 6.00053 0.354819C5.77335 0.582006 5.64571 0.890138 5.64571 1.21143V1.76C3.32952 2.30857 1.61524 4.38095 1.61524 6.85714V11.2914L0 12.9067V13.7143H13.7143V12.9067L12.099 11.2914ZM9.90476 8.38095H7.61905V10.6667H6.09524V8.38095H3.80952V6.85714H6.09524V4.57143H7.61905V6.85714H9.90476" fill="#D3D5DB"/>
</svg>
