<svg width="122" height="74" viewBox="0 0 122 74" fill="none" xmlns="http://www.w3.org/2000/svg">
<path d="M16.4596 41.6028L23.0526 46.224L42.8187 48.6225L47.1111 53.3279H58.1037L68.9916 45.2764L75.418 37.4899C75.418 37.4899 76.7387 37.225 76.32 28.5461C75.7965 19.7627 66.8978 11.9204 66.8978 11.9204L57.2661 1.56847L39.5733 0L25.5447 1.56847L9.42222 11.9204L0 26.1411V35.8656L7.01432 42.5578L17.6928 38.6889L16.4596 41.6028Z" transform="translate(4.26172 3.68506)" fill="#C94281"/>
<path d="M26.5916 1.64341C22.5086 4.46665 17.9022 5.61686 13.4005 5.09404C13.0864 6.03512 12.4583 7.28989 11.202 8.75379C8.79407 11.6816 5.02518 14.2957 0 16.4916C2.72197 19.7331 7.11901 21.3015 11.516 20.0468C12.9817 19.6285 14.3427 18.8965 15.3896 17.9555C15.9131 17.8509 16.5412 17.7463 17.0647 17.5372C24.8118 15.2368 29.7947 7.73777 28.8525 0C28.3291 0.627387 27.4291 1.12059 26.5916 1.64341Z" transform="translate(51.2676 40.5215)" fill="#E566A1"/>
<path d="M80.6859 26.3756C80.5812 25.4345 80.3718 24.3889 80.0578 23.4478C80.0578 23.3432 79.9531 23.2387 79.9531 23.1341C78.3827 17.8013 74.8232 13.5142 70.2168 11.0046C65.5057 3.37141 56.2928 -0.602044 47.08 1.59381C46.7659 1.69837 46.4519 1.80294 46.0331 1.9075C46.0331 1.9075 46.0331 1.9075 45.9284 1.9075C41.8454 -0.0792217 37.0296 -0.602044 32.3185 0.757294C28.759 1.80294 25.8277 3.78966 23.5245 6.29921C21.64 6.19465 19.6509 6.40378 17.7664 6.9266C11.9037 8.59963 7.71608 13.5142 6.56448 19.1606C1.74867 23.2387 -1.07799 30.0354 0.387688 36.5184C2.37682 45.3018 10.7521 51.8893 23.001 46.7657C23.001 46.8702 23.001 46.8702 23.1057 46.9748C23.5245 41.9557 26.6652 39.0279 28.445 37.6686C25.3042 33.2769 17.8711 24.8071 12.4272 27.3167C8.86768 28.9897 8.34423 32.2312 9.39114 34.6362C10.5427 37.1457 13.3694 38.9233 17.4524 37.2503C18.1852 36.9366 19.1274 37.2503 19.4415 38.0868C19.7556 38.8188 19.4415 39.7599 18.604 40.0736C12.7413 42.4785 8.23954 39.5507 6.66917 35.7864C4.99411 32.0221 6.04102 26.8984 11.1709 24.4934C12.2178 23.9706 13.4741 23.6569 15.0445 23.7615C15.0445 20.6246 16.0914 18.0104 18.0805 16.0237C21.2213 12.8868 25.8277 12.2594 28.0262 12.1548C29.5966 7.55399 33.9936 4.93987 39.7516 5.35813C42.7877 5.56726 45.405 7.03117 47.2894 8.3905C48.2316 9.12246 49.0691 9.85441 49.5926 10.3772C52.9427 8.28594 57.6538 7.03117 61.6321 8.49507C64.3541 9.43615 67.7042 11.8411 68.8558 18.2196C70.3215 18.9515 73.2528 20.7291 74.0904 23.9706C74.7185 26.271 74.1951 28.8852 72.6247 30.9764C71.2637 32.8586 68.3324 35.159 62.5743 35.3682C62.4696 35.3682 62.4696 35.3682 62.3649 35.3682C62.2603 35.3682 51.7911 34.3225 48.0222 41.7466C47.8129 42.1648 47.6035 42.5831 47.3941 42.8968C46.0331 45.0926 44.5674 46.3474 42.8924 46.8703C42.5783 46.9748 42.2642 46.9748 41.9501 47.0794C38.7047 47.3931 36.5062 44.6744 36.4015 44.5698C35.878 43.9424 35.9827 43.0014 36.6109 42.4785C37.239 41.9557 38.1813 42.0603 38.7047 42.6877C38.7047 42.6877 40.0657 44.2561 41.6361 44.1516C42.8924 44.047 44.1487 42.6877 45.405 40.3872C45.9284 39.3416 46.6612 38.4005 47.3941 37.4594C49.4879 35.159 52.4193 33.5906 55.9788 32.8586C59.2242 32.1266 62.0509 32.3358 62.679 32.4403C67.1807 32.2312 69.2746 30.6627 70.3215 29.3034C71.2637 27.9441 71.6825 26.3756 71.2637 24.9117C70.5309 22.193 67.076 20.9382 67.076 20.8337C66.5526 20.6246 66.1338 20.2063 66.1338 19.5789C65.5057 15.1872 63.7259 12.4685 60.7946 11.4229C57.1304 10.1681 52.3146 11.9457 49.6973 14.3507C46.6612 17.2785 47.6035 21.0428 48.1269 22.4021C53.5709 21.0428 57.6538 23.7615 57.7585 23.9706C58.4914 24.4934 58.5961 25.4345 58.1773 26.0619C57.6538 26.7939 56.7116 26.8984 56.0835 26.4802C55.9788 26.3756 52.7333 24.2843 48.441 25.5391C48.0222 25.6437 47.7082 25.7482 47.3941 25.8528C44.1487 27.1076 43.2064 29.0943 43.2064 29.3034C43.1017 29.7217 42.7877 30.0354 42.3689 30.2445C41.9501 30.4536 41.5314 30.3491 41.1126 30.2445C40.9032 30.1399 37.9719 28.9897 34.6217 31.6038C31.1669 34.2179 32.0045 37.7731 32.1092 37.8777C32.3185 38.6096 32.0045 39.3416 31.3763 39.6553C31.1669 39.7599 26.6652 42.1648 26.3511 47.7068C26.2464 50.1117 27.398 52.7259 29.8059 54.2943C32.5279 55.6537 35.7733 55.9674 38.9141 55.1308C40.0657 54.8172 41.1126 54.2943 42.0548 53.6669C43.7299 54.5035 45.6143 54.9217 47.4988 54.7126C49.802 54.7126 53.0474 53.1441 53.8849 52.7259C57.2351 50.8437 59.1195 48.9615 60.2711 47.6022C62.1556 45.5109 62.3649 43.9424 62.3649 43.7333C62.3649 43.3151 62.5743 42.8968 62.8884 42.5831C63.2025 42.2694 63.7259 42.2694 64.1447 42.2694C68.3324 43.2105 72.52 42.2694 76.2889 39.6553C78.0686 38.4005 79.4296 36.8321 80.0578 34.7408C80.3718 33.7997 80.3397 33.9857 80.5598 33.1143C80.8739 32.2429 81 30.0643 81 29.0943C81 28.3214 80.8297 27.6679 80.6859 26.3756Z" fill="#E566A1"/>
<path d="M21.4716 0.0322159C16.7605 -0.281478 13.4103 1.70525 12.5728 5.57413C12.3634 6.30609 11.7353 6.82891 11.0024 6.72434C10.8977 6.72434 5.24441 6.61978 2.10367 9.75671C0.637989 11.2206 -0.09485 13.2073 0.00984132 15.7169C0.00984132 15.8215 0.00984132 15.926 0.00984132 16.0306C2.10367 16.7625 4.51157 18.2264 7.12885 20.8406C8.69922 22.3045 10.0602 23.9775 11.1071 25.2323C11.6306 23.7684 12.5728 22.0953 14.4572 20.6314C17.8074 18.0173 20.9481 18.1219 22.7279 18.5401C23.4607 17.4945 24.717 16.1351 27.0202 14.9849C25.9733 12.3708 25.4498 7.56086 29.114 3.9011C27.753 2.64633 24.8217 0.241345 21.4716 0.0322159Z" transform="translate(17.9658 8.46289)" fill="#E566A1"/>
<rect width="2.62672" height="17.7869" rx="1.31336" transform="translate(78.4404 28)" fill="#5BB0B5"/>
<rect width="2.62672" height="17.7869" rx="1.31336" transform="translate(83.6934 28)" fill="#E0585D"/>
<rect width="2.63509" height="17.7303" rx="1.31755" transform="translate(122 45.7876) rotate(90)" fill="#5BB0B5"/>
<rect width="2.63509" height="17.7303" rx="1.31755" transform="translate(122 51.0576) rotate(90)" fill="#E0585D"/>
<path fill-rule="evenodd" clip-rule="evenodd" d="M35.1463 8.98779C33.4205 -2.07913 21.7409 -2.92776 17.6869 7.31189C13.3823 -2.92776 1.90088 -2.45207 0.116242 8.98779C-1.6684 20.4277 17.6869 33.0441 17.6869 33.0441C17.6869 33.0441 36.872 20.0547 35.1463 8.98779Z" transform="translate(74 40.9561)" fill="#F47E6C"/>
</svg>
