<svg width="114" height="103" viewBox="0 0 114 103" fill="none" xmlns="http://www.w3.org/2000/svg">
<path d="M13.5272 16.4789L0.664703 3.81427C-0.221568 2.94164 -0.221568 1.52711 0.664703 0.654476C1.55097 -0.218159 2.98761 -0.218159 3.87388 0.654476L16.7364 13.3191C17.6225 14.1916 17.6225 15.6062 16.7364 16.4789C15.8501 17.3514 14.4133 17.3514 13.5272 16.4789Z" transform="translate(17.4639 23.7949)" fill="#F47E6C"/>
<path d="M9.64031 6.33219L3.20917 1.41273e-06L4.36069e-07 3.1598L6.43114 9.49198C7.31741 10.3645 8.75404 10.3645 9.64031 9.49198C10.5265 8.61946 10.5265 7.20471 9.64031 6.33219Z" transform="translate(24.502 30.8071)" fill="#FCCB6F"/>
<path d="M13.5271 16.4789L0.664617 3.81427C-0.221539 2.94164 -0.221539 1.52711 0.664617 0.654476C1.55089 -0.218158 2.98752 -0.218158 3.87379 0.654476L16.7363 13.3191C17.6226 14.1917 17.6226 15.6062 16.7363 16.4789C15.8501 17.3515 14.4133 17.3515 13.5271 16.4789Z" transform="translate(37.3828 4.18311)" fill="#F47E6C"/>
<path d="M9.64031 6.33218L3.20917 2.2853e-07L7.59605e-07 3.1598L6.43114 9.49198C7.3173 10.3646 8.75404 10.3646 9.64031 9.49198C10.5266 8.61946 10.5264 7.20482 9.64031 6.33218Z" transform="translate(44.4209 11.1943)" fill="#FCCB6F"/>
<path d="M13.5265 16.4781L0.664703 3.81423C-0.221568 2.94159 -0.221568 1.52707 0.664703 0.654433C1.55097 -0.218201 2.98761 -0.218088 3.87388 0.654433L16.7356 13.3182C17.6218 14.1909 17.6218 15.6054 16.7356 16.478C15.8497 17.3507 14.4128 17.3507 13.5265 16.4781Z" transform="translate(4.27441 36.752)" fill="#63DBD0"/>
<path d="M9.64008 6.33196L3.20917 7.47917e-07L2.32101e-07 3.1598L6.43091 9.49175C7.31707 10.3643 8.75381 10.3643 9.64008 9.49175C10.5261 8.61912 10.5261 7.20437 9.64008 6.33196Z" transform="translate(11.3691 43.7383)" fill="#7692D9"/>
<path d="M13.5272 16.4789L0.664702 3.81427C-0.221569 2.94164 -0.221569 1.52711 0.664702 0.654476C1.55097 -0.218159 2.98761 -0.218159 3.87388 0.654476L16.7364 13.3191C17.6227 14.1916 17.6227 15.6062 16.7364 16.4789C15.8502 17.3514 14.4134 17.3514 13.5272 16.4789Z" transform="translate(24.1914 17.1387)" fill="#63DBD0"/>
<path d="M9.64032 6.33219L3.20917 4.2936e-07L-1.26601e-06 3.15968L6.43114 9.49187C7.3173 10.3644 8.75404 10.3644 9.64032 9.49187C10.5264 8.61935 10.5264 7.20471 9.64032 6.33219Z" transform="translate(31.2881 24.126)" fill="#7692D9"/>
<path d="M42.2238 21.9617C46.5053 22.4602 53.9282 22.5518 58.3352 18.2128C59.2214 17.3402 59.2214 15.9256 58.3352 15.053C57.4491 14.1804 56.0123 14.1804 55.1261 15.053C52.017 18.1142 45.7249 18.0324 41.3827 17.3309C40.7713 13.7421 40.4306 7.04487 43.7118 3.81427C44.598 2.94164 44.598 1.52711 43.7118 0.654476C42.8256 -0.218159 41.3889 -0.218159 40.5027 0.654476C36.0956 4.99371 36.1888 12.3025 36.6952 16.518C22.227 14.8337 15.0285 21.5778 16.7761 36.1306C12.4946 35.6321 5.07151 35.5404 0.664703 39.8794C-0.221568 40.752 -0.221568 42.1666 0.664703 43.0392C1.55097 43.9118 2.98761 43.9118 3.87388 43.0392C6.97635 39.9845 13.252 40.0579 17.6039 40.7593C18.3157 45.0423 18.3915 51.2227 15.2883 54.2781C14.4021 55.1507 14.4021 56.5652 15.2883 57.4379C16.1746 58.3105 17.6113 58.3104 18.4975 57.4379C22.9046 53.0986 22.8113 45.79 22.305 41.5743C36.773 43.2587 43.9713 36.5145 42.2238 21.9617ZM37.5227 21.1468C39.5689 33.4599 34.858 37.3775 26.217 37.3461C24.3236 37.3393 22.6101 37.1281 21.477 36.9456C21.2915 35.8294 21.0772 34.1428 21.0703 32.2785C21.039 23.9759 24.7967 19.0959 37.5227 21.1468Z" fill="#9DA3B3"/>
<path d="M7.68158 27.1757C22.15 28.86 29.3483 22.1159 27.6006 7.56316C31.8822 8.06171 39.305 8.15328 43.712 3.81427C44.5982 2.94164 44.5982 1.52711 43.712 0.654476C42.8259 -0.218158 41.3891 -0.218158 40.5029 0.654476C37.3971 3.7125 31.1149 3.63398 26.7729 2.93438L22.8993 6.74839C24.9455 19.0615 20.2346 22.9791 11.5936 22.9477C9.70015 22.9409 7.98672 22.7297 6.85362 22.5471L2.98023 26.3609C3.69204 30.6439 3.76786 36.8243 0.664703 39.8797C-0.221568 40.7523 -0.221568 42.1668 0.664703 43.0395C1.55097 43.9121 2.98761 43.912 3.87388 43.0395C8.28103 38.7001 8.18781 31.3914 7.68158 27.1757Z" transform="translate(14.623 14.3989)" fill="#9DA3B3"/>
<path d="M13.5272 16.4789L0.664703 3.81427C-0.221568 2.94164 -0.221568 1.52711 0.664703 0.654476C1.55097 -0.218159 2.98761 -0.218159 3.87388 0.654476L16.7364 13.3191C17.6225 14.1916 17.6225 15.6062 16.7364 16.4789C15.8501 17.3514 14.4133 17.3514 13.5272 16.4789Z" transform="translate(72.4639 67.7949)" fill="#907FBA"/>
<path d="M9.64031 6.33219L3.20917 1.41273e-06L4.36069e-07 3.1598L6.43114 9.49198C7.31741 10.3645 8.75404 10.3645 9.64031 9.49198C10.5265 8.61946 10.5265 7.20471 9.64031 6.33219Z" transform="translate(79.502 74.8071)" fill="#73C8CC"/>
<path d="M13.5271 16.4789L0.664617 3.81427C-0.221539 2.94164 -0.221539 1.52711 0.664617 0.654476C1.55089 -0.218158 2.98752 -0.218158 3.87379 0.654476L16.7363 13.3191C17.6226 14.1917 17.6226 15.6062 16.7363 16.4789C15.8501 17.3515 14.4133 17.3515 13.5271 16.4789Z" transform="translate(92.3809 48.1826)" fill="#907FBA"/>
<path d="M9.64031 6.33218L3.20917 2.2853e-07L7.59605e-07 3.1598L6.43114 9.49198C7.3173 10.3646 8.75404 10.3646 9.64031 9.49198C10.5266 8.61946 10.5264 7.20482 9.64031 6.33218Z" transform="translate(99.4209 55.1943)" fill="#73C8CC"/>
<path d="M13.5265 16.4781L0.664703 3.81423C-0.221568 2.94159 -0.221568 1.52707 0.664703 0.654433C1.55097 -0.218201 2.98761 -0.218088 3.87388 0.654433L16.7356 13.3182C17.6218 14.1909 17.6218 15.6054 16.7356 16.478C15.8497 17.3507 14.4128 17.3507 13.5265 16.4781Z" transform="translate(59.2744 80.752)" fill="#87C987"/>
<path d="M9.64008 6.33196L3.20917 7.47917e-07L2.32101e-07 3.1598L6.43091 9.49175C7.31707 10.3643 8.75381 10.3643 9.64008 9.49175C10.5261 8.61912 10.5261 7.20437 9.64008 6.33196Z" transform="translate(66.3691 87.7378)" fill="#E566A1"/>
<path d="M13.5272 16.4789L0.664702 3.81427C-0.221569 2.94164 -0.221569 1.52711 0.664702 0.654476C1.55097 -0.218159 2.98761 -0.218159 3.87388 0.654476L16.7364 13.3191C17.6227 14.1916 17.6227 15.6062 16.7364 16.4789C15.8502 17.3514 14.4134 17.3514 13.5272 16.4789Z" transform="translate(79.1914 61.1387)" fill="#87C987"/>
<path d="M9.64032 6.33219L3.20917 4.2936e-07L-1.26601e-06 3.15968L6.43114 9.49187C7.3173 10.3644 8.75404 10.3644 9.64032 9.49187C10.5264 8.61935 10.5264 7.20471 9.64032 6.33219Z" transform="translate(86.2881 68.126)" fill="#E566A1"/>
<path d="M42.2238 21.9617C46.5053 22.4602 53.9282 22.5518 58.3352 18.2128C59.2214 17.3402 59.2214 15.9256 58.3352 15.053C57.4491 14.1804 56.0123 14.1804 55.1261 15.053C52.017 18.1142 45.7249 18.0324 41.3827 17.3309C40.7713 13.7421 40.4306 7.04487 43.7118 3.81427C44.598 2.94164 44.598 1.52711 43.7118 0.654476C42.8256 -0.218159 41.3889 -0.218159 40.5027 0.654476C36.0956 4.99371 36.1888 12.3025 36.6952 16.518C22.227 14.8337 15.0285 21.5778 16.7761 36.1306C12.4946 35.6321 5.07151 35.5404 0.664703 39.8794C-0.221568 40.752 -0.221568 42.1666 0.664703 43.0392C1.55097 43.9118 2.98761 43.9118 3.87388 43.0392C6.97635 39.9845 13.252 40.0579 17.6039 40.7593C18.3157 45.0423 18.3915 51.2227 15.2883 54.2781C14.4021 55.1507 14.4021 56.5652 15.2883 57.4379C16.1746 58.3105 17.6113 58.3104 18.4975 57.4379C22.9046 53.0986 22.8113 45.79 22.305 41.5743C36.773 43.2587 43.9713 36.5145 42.2238 21.9617ZM37.5227 21.1468C39.5689 33.4599 34.858 37.3775 26.217 37.3461C24.3236 37.3393 22.6101 37.1281 21.477 36.9456C21.2915 35.8294 21.0772 34.1428 21.0703 32.2785C21.039 23.9759 24.7967 19.0959 37.5227 21.1468Z" transform="translate(55 44)" fill="#9DA3B3"/>
<path d="M7.68158 27.1757C22.15 28.86 29.3483 22.1159 27.6006 7.56316C31.8822 8.06171 39.305 8.15328 43.712 3.81427C44.5982 2.94164 44.5982 1.52711 43.712 0.654476C42.8259 -0.218158 41.3891 -0.218158 40.5029 0.654476C37.3971 3.7125 31.1149 3.63398 26.7729 2.93438L22.8993 6.74839C24.9455 19.0615 20.2346 22.9791 11.5936 22.9477C9.70015 22.9409 7.98672 22.7297 6.85362 22.5471L2.98023 26.3609C3.69204 30.6439 3.76786 36.8243 0.664703 39.8797C-0.221568 40.7523 -0.221568 42.1668 0.664703 43.0395C1.55097 43.9121 2.98761 43.912 3.87388 43.0395C8.28103 38.7001 8.18781 31.3914 7.68158 27.1757Z" transform="translate(69.623 58.3984)" fill="#9DA3B3"/>
<path d="M34.5392 18.6251C34.1931 17.8912 33.4143 17.4162 32.5923 17.4162H30.2992C29.737 12.5368 27.4006 8.0748 23.9395 4.96564C20.4784 1.89995 15.9787 0 10.9602 0H2.16321C0.951667 0 0 0.949832 0 2.15904C0 3.36795 0.951667 4.31807 2.16321 4.31807C9.7777 4.31807 16.2383 10.1187 17.277 17.4162H15.2867C14.4646 17.4162 13.6859 17.8912 13.3398 18.6251C12.9935 19.4024 13.0802 20.266 13.5994 20.9139L22.2522 31.7091C22.6417 32.2272 23.2905 32.5295 23.9395 32.5295C24.5885 32.5295 25.2374 32.2272 25.6268 31.7091L34.2796 20.9139C34.7988 20.266 34.8855 19.4024 34.5392 18.6251Z" transform="translate(66 8)" fill="#F89C55"/>
<path d="M32.5837 28.1682C24.9692 28.1682 18.5085 22.3676 17.4699 15.0701H19.4602C20.2822 15.0701 21.061 14.5951 21.4071 13.8609C21.7534 13.0836 21.6667 12.22 21.1475 11.5724L12.4947 0.777255C12.1052 0.259086 11.4563 -1.75703e-06 10.8074 -1.75703e-06C10.1584 -1.75703e-06 9.50946 0.259086 9.12008 0.777255L0.467253 11.5724C-0.0519171 12.22 -0.138445 13.0836 0.207668 13.8609C0.553781 14.5951 1.33254 15.0701 2.15455 15.0701H4.4477C5.00984 19.9495 7.34625 24.4115 10.8074 27.5204C14.2685 30.5864 18.7681 32.4863 23.7866 32.4863H32.5837C33.7952 32.4863 34.7469 31.5362 34.7469 30.3273C34.7469 29.1181 33.7952 28.1682 32.5837 28.1682Z" transform="translate(17 59)" fill="#F89C55"/>
</svg>
